<?xml version="1.0" standalone="no"?>
<!DOCTYPE svg PUBLIC "-//W3C//DTD SVG 20010904//EN"
 "http://www.w3.org/TR/2001/REC-SVG-20010904/DTD/svg10.dtd">
<svg version="1.0" xmlns="http://www.w3.org/2000/svg"
 width="260.000000pt" height="260.000000pt" viewBox="0 0 260.000000 260.000000"
 preserveAspectRatio="xMidYMid meet">
<metadata>
Created by potrace 1.14, written by Peter Selinger 2001-2017
</metadata>
<g transform="translate(0.000000,260.000000) scale(0.100000,-0.100000)"
fill="#000000" stroke="none">
<path d="M1347 2574 c-1 -1 -49 -4 -107 -7 -111 -6 -127 -9 -230 -34 -102 -25
-215 -72 -303 -126 -135 -82 -273 -230 -355 -377 -67 -120 -129 -308 -148
-447 -3 -26 -10 -70 -14 -98 -8 -53 -5 -393 4 -435 3 -13 8 -42 11 -65 10 -73
47 -209 77 -285 135 -343 379 -564 725 -656 109 -29 210 -39 370 -37 513 6
931 307 1030 744 10 44 12 74 6 80 -8 8 -165 12 -398 10 l-70 -1 -43 -85 c-72
-140 -176 -225 -337 -275 -92 -29 -271 -36 -370 -15 -159 34 -310 145 -390
288 -41 74 -89 214 -99 287 -3 25 -10 68 -14 95 -4 28 -7 106 -6 175 1 106 9
170 38 315 10 49 69 184 101 233 83 122 207 212 345 247 69 18 216 24 288 12
218 -35 382 -163 454 -354 12 -32 29 -64 38 -70 11 -9 74 -12 240 -10 l225 2
-3 45 c-10 156 -113 368 -246 508 -180 189 -445 310 -724 331 -51 3 -94 6 -95
5z"/>
<path d="M1012 1609 c-126 -21 -206 -96 -218 -207 -12 -105 69 -187 212 -216
174 -36 224 -65 224 -130 0 -34 -44 -83 -83 -92 -48 -12 -123 -7 -156 10 -32
17 -71 61 -71 81 0 14 -83 24 -122 15 -19 -5 -22 -12 -20 -35 4 -35 42 -103
71 -127 142 -119 437 -83 511 63 22 42 28 129 12 169 -26 67 -111 117 -246
144 -107 23 -154 44 -171 76 -38 74 29 139 137 134 60 -2 95 -25 121 -77 19
-37 19 -37 82 -37 35 0 67 5 70 10 11 19 -25 106 -58 140 -65 67 -179 97 -295
79z"/>
<path d="M1647 1596 c-109 -29 -182 -115 -180 -211 2 -117 76 -174 278 -215
124 -25 169 -69 143 -138 -24 -64 -126 -91 -218 -58 -31 11 -71 54 -82 88 -4
11 -101 19 -125 10 -18 -6 -16 -40 6 -87 42 -91 129 -137 266 -141 104 -3 175
16 233 63 88 71 104 208 34 286 -35 39 -145 82 -261 102 -36 6 -106 39 -115
54 -19 30 -13 75 14 104 23 26 35 31 87 35 78 5 128 -17 151 -67 10 -20 20
-38 24 -41 4 -3 33 -5 65 -5 68 2 74 12 49 79 -16 43 -51 86 -90 111 -64 42
-187 56 -279 31z"/>
</g>
</svg>
