<?xml version="1.0" encoding="UTF-8"?>
<svg xmlns="http://www.w3.org/2000/svg" xmlns:xlink="http://www.w3.org/1999/xlink" width="500px" height="500px" viewBox="0 0 500 500" version="1.1">
<g id="surface1">
<rect x="0" y="0" width="500" height="500" style="fill:rgb(100%,0%,0%);fill-opacity:1;stroke:none;"/>
<path style=" stroke:none;fill-rule:nonzero;fill:rgb(0%,40%,0%);fill-opacity:1;" d="M 0 0 L 200 0 L 200 500 L 0 500 Z M 0 0 "/>
<path style="fill-rule:evenodd;fill:rgb(100%,100%,0%);fill-opacity:1;stroke-width:0.573;stroke-linecap:round;stroke-linejoin:round;stroke:rgb(0%,0%,0%);stroke-opacity:1;stroke-miterlimit:4;" d="M 318.239062 262.040625 C 288.028125 261.13125 149.498437 174.659375 148.551562 160.890625 L 156.201562 148.134375 C 169.940625 168.1 311.559375 252.19375 325.471875 249.2125 L 318.239062 262.0375 " transform="matrix(0.833333,0,0,1.25,0,0)"/>
<path style="fill-rule:evenodd;fill:rgb(100%,100%,0%);fill-opacity:1;stroke-width:0.573;stroke-linecap:round;stroke-linejoin:round;stroke:rgb(0%,0%,0%);stroke-opacity:1;stroke-miterlimit:4;" d="M 154.589062 146.4 C 151.879687 153.69375 190.739062 177.71875 237.492188 206.153125 C 284.245313 234.5875 324.557813 252.159375 327.54375 249.640625 C 327.726562 249.315625 329.015625 247.1 328.898438 247.115625 C 328.335938 247.959375 326.976562 248.228125 324.848437 247.615625 C 312.215625 243.971875 279.271875 228.85 238.471875 204.109375 C 197.676562 179.365625 162.178125 156.565625 156.660937 146.875 C 156.276562 146.20625 156.004687 144.98125 156.060937 144.028125 L 155.925 144.025 L 154.753125 146.078125 Z M 318.951562 262.440625 C 318.435937 263.36875 317.484375 263.4 315.670312 263.2 C 304.36875 261.95 270.079687 245.275 229.504687 220.9875 C 182.296875 192.728125 143.30625 166.978125 147.534375 160.246875 L 148.6875 158.2125 L 148.9125 158.284375 C 145.110938 169.690625 225.8625 215.8625 230.615625 218.80625 C 277.340625 247.753125 316.729688 264.65625 320.217187 260.265625 L 318.946875 262.44375 Z M 318.951562 262.440625 " transform="matrix(0.833333,0,0,1.25,0,0)"/>
<path style="fill-rule:evenodd;fill:rgb(100%,100%,0%);fill-opacity:1;stroke-width:0.573;stroke-linecap:round;stroke-linejoin:round;stroke:rgb(0%,0%,0%);stroke-opacity:1;stroke-miterlimit:4;" d="M 240.16875 169.23125 C 270.407812 168.990625 307.720312 165.096875 329.19375 156.540625 L 324.567187 149.021875 C 311.873437 156.046875 274.354688 160.66875 239.915625 161.359375 C 199.176562 160.984375 170.423438 157.190625 156.01875 147.521875 L 151.65 155.528125 C 178.134375 166.734375 205.275 169.115625 240.16875 169.23125 " transform="matrix(0.833333,0,0,1.25,0,0)"/>
<path style="fill-rule:evenodd;fill:rgb(100%,100%,0%);fill-opacity:1;stroke-width:0.573;stroke-linecap:round;stroke-linejoin:round;stroke:rgb(0%,0%,0%);stroke-opacity:1;stroke-miterlimit:4;" d="M 330.440625 156.709375 C 329.7 157.890625 315.698438 162.721875 295.06875 166.284375 C 281.08125 168.41875 262.832812 170.240625 240.060937 170.2625 C 218.428125 170.284375 200.75625 168.74375 187.378125 166.93125 C 165.721875 163.534375 154.546875 158.809375 150.4125 157.140625 C 150.810937 156.353125 151.064063 155.803125 151.44375 155.06875 C 163.340625 159.80625 174.567187 162.6625 187.725 164.684375 C 201.014062 166.484375 218.475 168.046875 240 168.028125 C 262.664062 168.003125 280.70625 166.04375 294.614062 163.975 C 315.76875 160.5625 327.328125 156.16875 328.95 154.13125 L 330.445312 156.709375 Z M 326.38125 149.0875 C 324.084375 150.928125 312.660937 154.98125 292.560937 158.190625 C 279.145312 160.1125 262.0875 161.834375 240.295312 161.85625 C 219.590625 161.875 202.678125 160.48125 189.810937 158.60625 C 169.396875 155.940625 158.53125 151.13125 154.6125 149.728125 C 155.00625 149.05625 155.4 148.3875 155.807812 147.715625 C 158.854687 149.25 169.340625 153.50625 190.035937 156.4375 C 202.753125 158.240625 219.69375 159.584375 240.295312 159.5625 C 261.989062 159.540625 278.85 157.7875 292.18125 155.875 C 312.384375 153.096875 323.254687 147.928125 324.909375 146.634375 L 326.38125 149.084375 Z M 326.38125 149.0875 " transform="matrix(0.833333,0,0,1.25,0,0)"/>
<path style="fill-rule:evenodd;fill:rgb(100%,100%,0%);fill-opacity:1;stroke-width:0.573;stroke-linecap:round;stroke-linejoin:round;stroke:rgb(0%,0%,0%);stroke-opacity:1;stroke-miterlimit:4;" d="M 140.878125 205.659375 C 159.478125 215.6625 200.784375 220.703125 239.873437 221.05 C 275.465625 221.10625 321.829687 215.55 339.16875 206.3625 L 338.695312 196.35 C 333.267187 204.825 283.579687 212.959375 239.489062 212.625 C 195.39375 212.29375 154.448437 205.48125 140.803125 196.665625 L 140.878125 205.65625 " transform="matrix(0.833333,0,0,1.25,0,0)"/>
<path style="fill-rule:evenodd;fill:rgb(100%,100%,0%);fill-opacity:1;stroke-width:0.573;stroke-linecap:round;stroke-linejoin:round;stroke:rgb(0%,0%,0%);stroke-opacity:1;stroke-miterlimit:4;" d="M 340.120313 204.21875 L 340.120313 206.60625 C 337.514062 209.721875 321.173437 214.434375 300.684375 217.75 C 285.089063 220.140625 264.754687 221.94375 239.423437 221.94375 C 215.353125 221.94375 196.157813 220.228125 181.275 217.94375 C 157.74375 214.515625 142.696875 208.515625 139.673438 206.725 L 139.6875 203.940625 C 148.7625 209.975 173.348437 214.3875 181.603125 215.7375 C 196.392188 218.009375 215.470313 219.7125 239.41875 219.7125 C 264.6375 219.7125 284.854688 217.91875 300.351562 215.54375 C 315.051562 213.421875 335.995313 207.9 340.120313 204.221875 Z M 340.129687 195.728125 L 340.129687 198.115625 C 337.523438 201.228125 321.182813 205.9375 300.69375 209.25625 C 285.098437 211.646875 264.76875 213.45 239.432812 213.45 C 215.3625 213.45 196.167187 211.734375 181.284375 209.446875 C 157.753125 206.025 142.70625 200.025 139.682812 198.23125 L 139.696875 195.446875 C 148.771875 201.478125 173.357812 205.89375 181.6125 207.24375 C 196.401562 209.515625 215.484375 211.21875 239.432812 211.21875 C 264.646875 211.21875 284.864062 209.428125 300.360937 207.05 C 315.060937 204.925 336.004687 199.403125 340.129687 195.725 Z M 340.129687 195.728125 " transform="matrix(0.833333,0,0,1.25,0,0)"/>
<path style="fill-rule:evenodd;fill:rgb(100%,100%,0%);fill-opacity:1;stroke-width:0.573;stroke-linecap:round;stroke-linejoin:round;stroke:rgb(0%,0%,0%);stroke-opacity:1;stroke-miterlimit:4;" d="M 239.789062 260.31875 C 197.020312 260.065625 160.36875 248.6625 152.629687 246.775 L 158.273438 255.609375 C 171.942187 261.359375 207.698437 269.93125 240.201562 268.98125 C 272.704687 268.034375 301.110937 265.515625 321.126562 255.771875 L 326.915625 246.615625 C 313.270312 253.040625 266.845312 260.253125 239.789062 260.31875 " transform="matrix(0.833333,0,0,1.25,0,0)"/>
<path style="fill-rule:evenodd;fill:rgb(100%,100%,0%);fill-opacity:1;stroke-width:0.55;stroke-linecap:round;stroke-linejoin:round;stroke:rgb(0%,0%,0%);stroke-opacity:1;stroke-miterlimit:4;" d="M 323.301562 253.71875 C 322.448438 255.01875 321.58125 256.303125 320.704687 257.55 C 311.264062 260.878125 296.385938 264.375 290.104688 265.39375 C 277.284375 268.034375 257.442187 269.9875 239.83125 269.996875 C 201.942187 269.440625 170.929688 262.025 156.3375 255.696875 L 155.160937 253.671875 L 155.353125 253.36875 L 157.35 254.14375 C 183.295312 263.428125 212.4375 267.13125 240.046875 267.79375 C 257.582812 267.85625 275.142187 265.784375 289.335938 263.246875 C 311.109375 258.884375 319.9125 255.596875 322.6125 254.10625 Z M 328.317187 245.44375 C 328.340625 245.46875 328.359375 245.49375 328.382812 245.521875 C 327.745313 246.596875 327.089063 247.6875 326.41875 248.784375 C 321.384375 250.584375 307.720312 254.584375 287.760938 257.375 C 274.6125 259.165625 266.4375 260.9 240.28125 261.409375 C 191.26875 260.159375 159.534375 250.578125 151.992188 248.2125 L 150.876563 246.06875 C 179.282813 253.484375 208.298438 258.6625 240.285937 259.190625 C 264.215625 258.68125 274.396875 256.91875 287.4375 255.140625 C 310.70625 251.521875 322.429688 247.690625 325.95 246.584375 C 325.907812 246.521875 325.85625 246.453125 325.795312 246.384375 L 328.321875 245.44375 Z M 328.317187 245.44375 " transform="matrix(0.833333,0,0,1.25,0,0)"/>
<path style="fill-rule:evenodd;fill:rgb(100%,100%,0%);fill-opacity:1;stroke-width:0.573;stroke-linecap:round;stroke-linejoin:round;stroke:rgb(0%,0%,0%);stroke-opacity:1;stroke-miterlimit:4;" d="M 328.828125 197.759375 C 328.96875 225.896875 314.56875 251.146875 302.971875 262.284375 C 286.565625 278.04375 264.810937 288.18125 239.404687 288.646875 C 211.03125 289.16875 184.284375 270.675 177.107812 262.55 C 163.078125 246.6625 151.659375 226.490625 151.29375 199.30625 C 153.032813 168.596875 165.084375 147.20625 182.559375 132.5375 C 200.034375 117.86875 223.303125 110.725 242.68125 111.234375 C 265.040625 111.825 291.154687 122.79375 309.201562 144.565625 C 321.028125 158.834375 326.146875 174.315625 328.828125 197.759375 Z M 239.64375 101.41875 C 294.13125 101.41875 338.939062 145.75625 338.939062 200.121875 C 338.939062 254.484375 294.13125 298.825 239.64375 298.825 C 185.160937 298.825 140.71875 254.4875 140.71875 200.121875 C 140.71875 145.75625 185.160937 101.41875 239.64375 101.41875 " transform="matrix(0.833333,0,0,1.25,0,0)"/>
<path style="fill-rule:evenodd;fill:rgb(100%,100%,0%);fill-opacity:1;stroke-width:0.573;stroke-linecap:round;stroke-linejoin:round;stroke:rgb(0%,0%,0%);stroke-opacity:1;stroke-miterlimit:4;" d="M 239.910937 101.08125 C 294.445312 101.08125 338.920312 145.5625 338.920312 200.103125 C 338.920312 254.640625 294.445312 299.121875 239.910937 299.121875 C 185.376563 299.121875 140.896875 254.640625 140.896875 200.103125 C 140.896875 145.5625 185.376563 101.08125 239.910937 101.08125 Z M 143.076562 200.103125 C 143.076562 253.3625 186.815625 296.94375 239.910937 296.94375 C 293.00625 296.94375 336.745313 253.3625 336.745313 200.103125 C 336.745313 146.840625 293.00625 103.259375 239.910937 103.259375 C 186.815625 103.259375 143.076562 146.84375 143.076562 200.103125 Z M 143.076562 200.103125 " transform="matrix(0.833333,0,0,1.25,0,0)"/>
<path style="fill-rule:evenodd;fill:rgb(100%,100%,0%);fill-opacity:1;stroke-width:0.573;stroke-linecap:round;stroke-linejoin:round;stroke:rgb(0%,0%,0%);stroke-opacity:1;stroke-miterlimit:4;" d="M 239.990625 109.309375 C 289.720312 109.309375 330.684375 150.13125 330.684375 200.0125 C 330.684375 249.896875 289.720312 290.715625 239.990625 290.715625 C 190.260937 290.715625 149.296875 249.896875 149.296875 200.0125 C 149.296875 150.13125 190.260937 109.309375 239.990625 109.309375 Z M 151.476562 200.0125 C 151.476562 248.696875 191.45625 288.5375 239.990625 288.5375 C 288.525 288.5375 328.504687 248.696875 328.504687 200.0125 C 328.504687 151.328125 288.525 111.4875 239.990625 111.4875 C 191.45625 111.4875 151.476562 151.328125 151.476562 200.0125 Z M 151.476562 200.0125 " transform="matrix(0.833333,0,0,1.25,0,0)"/>
<path style="fill-rule:evenodd;fill:rgb(100%,100%,0%);fill-opacity:1;stroke-width:0.573;stroke-linecap:round;stroke-linejoin:round;stroke:rgb(0%,0%,0%);stroke-opacity:1;stroke-miterlimit:4;" d="M 243.979687 100.68125 L 235.495312 100.68125 L 235.504687 299.640625 L 244.017187 299.640625 Z M 243.979687 100.68125 " transform="matrix(0.833333,0,0,1.25,0,0)"/>
<path style="fill-rule:evenodd;fill:rgb(100%,100%,0%);fill-opacity:1;stroke-width:0.573;stroke-linecap:round;stroke-linejoin:round;stroke:rgb(0%,0%,0%);stroke-opacity:1;stroke-miterlimit:4;" d="M 243.13125 99.546875 L 245.2875 99.546875 L 245.30625 300.796875 L 243.145312 300.796875 Z M 234.707812 99.546875 L 236.8875 99.546875 L 236.8875 300.796875 L 234.707812 300.796875 Z M 234.707812 99.546875 " transform="matrix(0.833333,0,0,1.25,0,0)"/>
<path style="fill-rule:evenodd;fill:rgb(100%,100%,0%);fill-opacity:1;stroke-width:0.573;stroke-linecap:round;stroke-linejoin:round;stroke:rgb(0%,0%,0%);stroke-opacity:1;stroke-miterlimit:4;" d="M 338.990625 203.934375 L 338.990625 196.578125 L 333 191 L 299.001562 182 L 249.998437 177 L 191.001563 180 L 149.001563 190 L 140.521875 196.278125 L 140.521875 203.6375 L 162 194 L 213 186 L 261.998437 186 L 297.998437 190 L 323.001562 196 Z M 338.990625 203.934375 " transform="matrix(0.833333,0,0,1.25,0,0)"/>
<path style="fill-rule:evenodd;fill:rgb(100%,100%,0%);fill-opacity:1;stroke-width:0.573;stroke-linecap:round;stroke-linejoin:round;stroke:rgb(0%,0%,0%);stroke-opacity:1;stroke-miterlimit:4;" d="M 239.948437 184.76875 C 263.334375 184.728125 286.021875 186.984375 304.017187 190.490625 C 322.584375 194.2 335.653125 198.84375 340.120313 204.059375 L 340.115625 206.64375 C 334.725 200.153125 317.142187 195.39375 303.595312 192.675 C 285.740625 189.2 263.203125 186.959375 239.948437 187 C 215.414062 187.046875 192.5625 189.371875 174.965625 192.803125 C 160.846875 195.60625 142.017188 201.171875 139.664062 206.6625 L 139.664062 203.971875 C 140.953125 200.171875 154.978125 194.49375 174.646875 190.55625 C 192.375 187.1 215.26875 184.815625 239.948437 184.76875 Z M 239.957812 176.278125 C 263.34375 176.234375 286.03125 178.49375 304.026563 181.996875 C 322.59375 185.7125 335.6625 190.353125 340.129687 195.56875 L 340.125 198.15 C 334.734375 191.6625 317.151563 186.903125 303.604688 184.184375 C 285.75 180.709375 263.2125 178.465625 239.957812 178.509375 C 215.423438 178.55625 192.684375 180.88125 175.082812 184.3125 C 161.460938 186.896875 141.857812 192.68125 139.673438 198.171875 L 139.673438 195.48125 C 140.9625 191.721875 155.26875 185.840625 174.65625 182.065625 C 192.389062 178.60625 215.278125 176.325 239.957812 176.278125 Z M 239.957812 176.278125 " transform="matrix(0.833333,0,0,1.25,0,0)"/>
<path style="fill-rule:evenodd;fill:rgb(100%,100%,0%);fill-opacity:1;stroke-width:0.573;stroke-linecap:round;stroke-linejoin:round;stroke:rgb(0%,0%,0%);stroke-opacity:1;stroke-miterlimit:4;" d="M 239.479687 132.959375 C 276.328125 132.775 308.470312 138.1125 323.175 145.64375 L 328.5375 154.925 C 315.759375 148.0375 281.08125 140.875 239.535937 141.94375 C 205.678125 142.153125 169.504687 145.671875 151.359375 155.35625 L 157.7625 144.646875 C 172.654687 136.921875 207.782813 133.003125 239.479687 132.9625 " transform="matrix(0.833333,0,0,1.25,0,0)"/>
<path style="fill-rule:evenodd;fill:rgb(100%,100%,0%);fill-opacity:1;stroke-width:0.573;stroke-linecap:round;stroke-linejoin:round;stroke:rgb(0%,0%,0%);stroke-opacity:1;stroke-miterlimit:4;" d="M 239.971875 140.61875 C 260.985937 140.565625 281.296875 141.75 297.445312 144.6625 C 312.4875 147.4625 326.83125 151.665625 328.879687 153.925 L 330.473437 156.734375 C 325.485937 153.478125 313.073438 149.85 297.13125 146.828125 C 281.128125 143.81875 260.83125 142.821875 239.934375 142.878125 C 216.210938 142.796875 197.779687 144.05 181.964062 146.80625 C 165.234375 149.9375 153.628125 154.409375 150.76875 156.534375 L 152.325 153.5625 C 157.889062 150.725 166.715625 147.303125 181.546875 144.634375 C 197.90625 141.64375 216.529687 140.75 239.971875 140.61875 Z M 239.9625 132.134375 C 260.071875 132.08125 279.932813 133.203125 295.410937 135.9875 C 307.621875 138.3625 319.696875 142.075 324.117188 145.375 L 326.442187 149.071875 C 322.490625 144.675 307.607812 140.5125 294.46875 138.178125 C 279.107812 135.528125 260.071875 134.48125 239.9625 134.3125 C 218.854687 134.371875 199.345313 135.665625 184.209375 138.421875 C 169.767188 141.16875 160.448437 144.421875 156.50625 146.9625 L 158.55 143.878125 C 163.992188 141.0125 172.78125 138.38125 183.853125 136.23125 C 199.101562 133.453125 218.728125 132.19375 239.9625 132.134375 Z M 239.9625 132.134375 " transform="matrix(0.833333,0,0,1.25,0,0)"/>
<path style="fill-rule:evenodd;fill:rgb(100%,100%,0%);fill-opacity:1;stroke-width:0.573;stroke-linecap:round;stroke-linejoin:round;stroke:rgb(0%,0%,0%);stroke-opacity:1;stroke-miterlimit:4;" d="M 289.148438 241.259375 C 270.932813 237.859375 252.679688 237.365625 239.934375 237.515625 C 178.528125 238.234375 158.690625 250.125 156.267188 253.725 L 151.678125 246.24375 C 167.310937 234.909375 200.751563 228.55625 240.267187 229.20625 C 260.784375 229.540625 278.489062 230.903125 293.385938 233.790625 L 289.148438 241.2625 " transform="matrix(0.833333,0,0,1.25,0,0)"/>
<path style="fill-rule:evenodd;fill:rgb(100%,100%,0%);fill-opacity:1;stroke-width:0.55;stroke-linecap:round;stroke-linejoin:round;stroke:rgb(0%,0%,0%);stroke-opacity:1;stroke-miterlimit:4;" d="M 239.578125 236.459375 C 256.664062 236.715625 273.43125 237.421875 289.6125 240.4375 L 288.440625 242.50625 C 273.407812 239.73125 257.385938 238.671875 239.639062 238.75625 C 216.975 238.58125 194.053125 240.696875 174.098437 246.425 C 167.798438 248.178125 157.378125 252.225 156.314063 255.56875 L 155.146875 253.646875 C 155.484375 251.66875 161.784375 247.565625 173.559375 244.25625 C 196.420312 237.7125 217.8 236.609375 239.578125 236.459375 Z M 240.35625 227.8625 C 258.051562 228.19375 276.328125 229.0125 294.09375 232.53125 L 292.875 234.684375 C 276.834375 231.5 261.50625 230.4375 240.459375 230.115625 C 217.725 230.15625 193.607812 231.778125 171.679688 238.153125 C 164.601562 240.215625 152.385937 244.671875 151.978125 248.203125 L 150.810937 246.1375 C 151.078125 242.93125 161.653125 238.75 171.16875 235.98125 C 193.265625 229.55625 217.44375 227.90625 240.35625 227.8625 Z M 240.35625 227.8625 " transform="matrix(0.833333,0,0,1.25,0,0)"/>
<path style="fill-rule:evenodd;fill:rgb(100%,100%,0%);fill-opacity:1;stroke-width:0.573;stroke-linecap:round;stroke-linejoin:round;stroke:rgb(0%,0%,0%);stroke-opacity:1;stroke-miterlimit:4;" d="M 327.58125 247.38125 L 320.203125 258.828125 L 299.001562 240 L 243.998437 203 L 182.001563 169 L 149.807812 157.990625 L 156.670312 145.26875 L 159 144 L 179.001563 149 L 245.001562 183 L 282.998437 207 L 315 230 L 327.998437 245 Z M 327.58125 247.38125 " transform="matrix(0.833333,0,0,1.25,0,0)"/>
<path style="fill-rule:evenodd;fill:rgb(100%,100%,0%);fill-opacity:1;stroke-width:0.573;stroke-linecap:round;stroke-linejoin:round;stroke:rgb(0%,0%,0%);stroke-opacity:1;stroke-miterlimit:4;" d="M 148.65 158.290625 C 154.29375 154.459375 195.7875 172.94375 239.203125 199.125 C 282.50625 225.378125 323.882812 255.04375 320.146875 260.596875 L 318.91875 262.528125 L 318.35625 262.975 C 318.478125 262.8875 319.096875 262.125 318.295312 260.06875 C 316.448438 253.996875 287.1 230.578125 238.401562 201.171875 C 190.926562 172.8625 151.359375 155.803125 147.403125 160.678125 Z M 329.090625 247.215625 C 332.657812 240.165625 294.173437 211.171875 246.459375 182.94375 C 197.64375 155.278125 162.464062 138.99375 156.0375 143.85 L 154.6125 146.45 C 154.598437 146.590625 154.664062 146.271875 154.964062 146.0375 C 156.13125 145.01875 158.067187 145.0875 158.94375 145.071875 C 170.00625 145.2375 201.609375 159.78125 245.948437 185.2 C 265.378125 196.515625 328.021875 236.690625 327.782812 247.990625 C 327.796875 248.959375 327.8625 249.159375 327.496875 249.640625 L 329.090625 247.21875 Z M 329.090625 247.215625 " transform="matrix(0.833333,0,0,1.25,0,0)"/>
<path style="fill-rule:nonzero;fill:rgb(100%,100%,100%);fill-opacity:1;stroke-width:0.67037;stroke-linecap:butt;stroke-linejoin:bevel;stroke:rgb(0%,0%,0%);stroke-opacity:1;stroke-miterlimit:4;" d="M 180.6 211.009375 C 180.6 227.28125 187.260937 241.996875 198.05625 252.753125 C 208.870312 263.53125 223.570312 270.33125 239.864062 270.33125 C 256.246875 270.33125 271.110937 263.678125 281.882812 252.940625 C 292.65 242.20625 299.325 227.390625 299.329687 211.0625 L 299.325 211.0625 L 299.325 131.871875 L 180.585938 131.73125 Z M 180.6 211.009375 " transform="matrix(0.833333,0,0,1.25,0,0)"/>
<path style="fill-rule:nonzero;fill:rgb(100%,0%,0%);fill-opacity:1;stroke-width:0.50734;stroke-linecap:butt;stroke-linejoin:miter;stroke:rgb(0%,0%,0%);stroke-opacity:1;stroke-miterlimit:4;" d="M 182.821875 211.11875 L 182.821875 211.165625 C 182.821875 226.721875 189.2625 240.8875 199.59375 251.175 C 209.948437 261.478125 224.207812 267.8875 239.807812 267.8875 C 255.492188 267.8875 269.71875 261.525 280.03125 251.259375 C 290.339063 240.99375 296.728125 226.828125 296.728125 211.215625 L 296.728125 134.390625 L 182.8875 134.371875 L 182.817187 211.11875 M 273.839063 157.371875 L 273.84375 206.2625 L 273.801562 211.434375 C 273.801562 212.796875 273.721875 214.346875 273.5625 215.66875 C 272.639062 223.396875 269.08125 230.134375 263.817187 235.375 C 257.653125 241.5125 249.145312 245.31875 239.770312 245.31875 C 230.442187 245.31875 222.13125 241.38125 215.94375 235.21875 C 209.592187 228.896875 205.9125 220.23125 205.9125 211.271875 L 205.898438 157.246875 Z M 273.839063 157.371875 " transform="matrix(0.833333,0,0,1.25,0,0)"/>
<path style=" stroke:none;fill-rule:nonzero;fill:rgb(100%,100%,0%);fill-opacity:1;" d="M 158.492188 193.039062 C 158.605469 186.136719 161.867188 184.503906 161.890625 184.476562 C 161.914062 184.457031 165.417969 186.238281 165.40625 193.101562 L 158.492188 193.039062 "/>
<path style="fill-rule:nonzero;fill:rgb(100%,100%,0%);fill-opacity:1;stroke-width:0.5;stroke-linecap:butt;stroke-linejoin:miter;stroke:rgb(0%,0%,0%);stroke-opacity:1;stroke-miterlimit:4;" d="M 186.810937 147.690625 L 186.126563 154.034375 L 190.270312 154.04375 C 190.307812 148.79375 194.240625 147.921875 194.339062 147.940625 C 194.428125 147.934375 198.328125 149.1 198.43125 154.04375 L 202.579688 154.04375 L 201.834375 147.65 L 186.810937 147.6875 Z M 186.810937 147.690625 " transform="matrix(0.833333,0,0,1.25,0,0)"/>
<path style="fill-rule:nonzero;fill:rgb(100%,100%,0%);fill-opacity:1;stroke-width:0.5;stroke-linecap:butt;stroke-linejoin:miter;stroke:rgb(0%,0%,0%);stroke-opacity:1;stroke-miterlimit:4;" d="M 185.85 154.059375 L 202.795312 154.059375 C 203.151562 154.059375 203.446875 154.4125 203.446875 154.84375 C 203.446875 155.275 203.151562 155.625 202.795312 155.625 L 185.85 155.625 C 185.49375 155.625 185.203125 155.275 185.203125 154.84375 C 185.203125 154.4125 185.49375 154.059375 185.85 154.059375 Z M 185.85 154.059375 " transform="matrix(0.833333,0,0,1.25,0,0)"/>
<path style="fill-rule:nonzero;fill:rgb(100%,100%,0%);fill-opacity:1;stroke-width:0.5;stroke-linecap:butt;stroke-linejoin:miter;stroke:rgb(0%,0%,0%);stroke-opacity:1;stroke-miterlimit:4;" d="M 192.009375 154.03125 C 192.028125 150.71875 194.273438 149.78125 194.282813 149.78125 C 194.282813 149.78125 196.626563 150.746875 196.645312 154.03125 L 192.009375 154.03125 " transform="matrix(0.833333,0,0,1.25,0,0)"/>
<path style="fill-rule:nonzero;fill:rgb(100%,100%,0%);fill-opacity:1;stroke-width:0.5;stroke-linecap:butt;stroke-linejoin:miter;stroke:rgb(0%,0%,0%);stroke-opacity:1;stroke-miterlimit:4;" d="M 186.210938 145.05 L 202.453125 145.05 C 202.795312 145.05 203.076562 145.36875 203.076562 145.753125 C 203.076562 146.140625 202.795312 146.459375 202.453125 146.459375 L 186.210938 146.459375 C 185.86875 146.459375 185.5875 146.14375 185.5875 145.753125 C 185.5875 145.36875 185.86875 145.05 186.210938 145.05 Z M 186.210938 145.05 " transform="matrix(0.833333,0,0,1.25,0,0)"/>
<path style="fill-rule:nonzero;fill:rgb(100%,100%,0%);fill-opacity:1;stroke-width:0.5;stroke-linecap:butt;stroke-linejoin:miter;stroke:rgb(0%,0%,0%);stroke-opacity:1;stroke-miterlimit:4;" d="M 186.548438 146.46875 L 202.0875 146.46875 C 202.415625 146.46875 202.682812 146.7875 202.682812 147.175 C 202.682812 147.5625 202.415625 147.878125 202.0875 147.878125 L 186.548438 147.878125 C 186.225 147.878125 185.953125 147.5625 185.953125 147.175 C 185.953125 146.7875 186.225 146.46875 186.548438 146.46875 Z M 186.548438 146.46875 " transform="matrix(0.833333,0,0,1.25,0,0)"/>
<path style="fill-rule:nonzero;fill:rgb(100%,100%,0%);fill-opacity:1;stroke-width:0.5;stroke-linecap:butt;stroke-linejoin:miter;stroke:rgb(0%,0%,0%);stroke-opacity:1;stroke-miterlimit:4;" d="M 191.56875 135.88125 L 192.796875 135.88125 L 192.796875 136.753125 L 193.692187 136.753125 L 193.692187 135.8625 L 194.948437 135.865625 L 194.948437 136.753125 L 195.848437 136.753125 L 195.848437 135.8625 L 197.104687 135.8625 L 197.1 137.875 C 197.1 138.190625 196.846875 138.39375 196.551562 138.39375 L 192.140625 138.39375 C 191.845313 138.39375 191.573437 138.159375 191.573437 137.86875 Z M 191.56875 135.88125 " transform="matrix(0.833333,0,0,1.25,0,0)"/>
<path style="fill-rule:nonzero;fill:rgb(100%,100%,0%);fill-opacity:1;stroke-width:0.5;stroke-linecap:butt;stroke-linejoin:miter;stroke:rgb(0%,0%,0%);stroke-opacity:1;stroke-miterlimit:4;" d="M 196.190625 138.56875 L 196.467187 145.021875 L 192.164062 145.00625 L 192.45 138.553125 L 196.190625 138.56875 " transform="matrix(0.833333,0,0,1.25,0,0)"/>
<path style="fill-rule:nonzero;fill:rgb(100%,100%,0%);fill-opacity:1;stroke-width:0.5;stroke-linecap:butt;stroke-linejoin:miter;stroke:rgb(0%,0%,0%);stroke-opacity:1;stroke-miterlimit:4;" d="M 190.940625 141.559375 L 191.071875 145.0375 L 186.946875 145.040625 L 187.064063 141.559375 Z M 190.940625 141.559375 " transform="matrix(0.833333,0,0,1.25,0,0)"/>
<path style="fill-rule:nonzero;fill:rgb(100%,100%,0%);fill-opacity:1;stroke-width:0.5;stroke-linecap:butt;stroke-linejoin:miter;stroke:rgb(0%,0%,0%);stroke-opacity:1;stroke-miterlimit:4;" d="M 190.939437 141.559375 L 191.070687 145.0375 L 186.945687 145.040625 L 187.062875 141.559375 Z M 190.939437 141.559375 " transform="matrix(0.833333,0,0,1.25,8.840833,0)"/>
<path style="fill-rule:nonzero;fill:rgb(100%,100%,0%);fill-opacity:1;stroke-width:0.5;stroke-linecap:butt;stroke-linejoin:miter;stroke:rgb(0%,0%,0%);stroke-opacity:1;stroke-miterlimit:4;" d="M 186.3 139.040625 L 187.5 139.04375 L 187.5 139.915625 L 188.376563 139.915625 L 188.376563 139.021875 L 189.604687 139.028125 L 189.604687 139.915625 L 190.485938 139.915625 L 190.485938 139.021875 L 191.714062 139.025 L 191.714062 141.0375 C 191.714062 141.35 191.465625 141.55625 191.179688 141.55625 L 186.8625 141.55625 C 186.571875 141.55625 186.304688 141.31875 186.3 141.03125 Z M 186.3 139.040625 " transform="matrix(0.833333,0,0,1.25,0,0)"/>
<path style="fill-rule:nonzero;fill:rgb(100%,100%,0%);fill-opacity:1;stroke-width:0.5;stroke-linecap:butt;stroke-linejoin:miter;stroke:rgb(0%,0%,0%);stroke-opacity:1;stroke-miterlimit:4;" d="M 186.298812 139.040625 L 187.498812 139.04375 L 187.498812 139.915625 L 188.375375 139.915625 L 188.375375 139.021875 L 189.608187 139.028125 L 189.608187 139.915625 L 190.48475 139.915625 L 190.48475 139.021875 L 191.717562 139.025 L 191.712875 141.0375 C 191.712875 141.35 191.464437 141.55625 191.1785 141.55625 L 186.861312 141.55625 C 186.570687 141.55625 186.3035 141.31875 186.3035 141.03125 Z M 186.298812 139.040625 " transform="matrix(0.833333,0,0,1.25,8.840833,0)"/>
<path style=" stroke:none;fill-rule:nonzero;fill:rgb(0%,0%,0%);fill-opacity:1;" d="M 161.582031 175.761719 C 161.5625 174.980469 162.3125 174.96875 162.304688 175.761719 L 162.304688 177.683594 L 161.582031 177.683594 L 161.582031 175.761719 "/>
<path style=" stroke:none;fill-rule:nonzero;fill:rgb(0%,0%,0%);fill-opacity:1;" d="M 157.140625 178.550781 C 157.140625 177.792969 157.839844 177.777344 157.832031 178.550781 L 157.832031 180.035156 L 157.140625 180.035156 L 157.140625 178.550781 "/>
<path style=" stroke:none;fill-rule:nonzero;fill:rgb(0%,0%,0%);fill-opacity:1;" d="M 166.007812 178.550781 C 166.007812 177.792969 166.707031 177.777344 166.699219 178.550781 L 166.699219 180.035156 L 166.007812 180.035156 L 166.007812 178.550781 "/>
<path style=" stroke:none;fill-rule:nonzero;fill:rgb(100%,100%,0%);fill-opacity:1;" d="M 158.492188 250.9375 C 158.605469 244.035156 161.867188 242.402344 161.890625 242.378906 C 161.914062 242.355469 165.417969 244.136719 165.40625 251 L 158.492188 250.9375 "/>
<path style="fill-rule:nonzero;fill:rgb(100%,100%,0%);fill-opacity:1;stroke-width:0.5;stroke-linecap:butt;stroke-linejoin:miter;stroke:rgb(0%,0%,0%);stroke-opacity:1;stroke-miterlimit:4;" d="M 186.810937 147.689575 L 186.126563 154.033325 L 190.270312 154.0427 C 190.307812 148.795825 194.240625 147.920825 194.339062 147.939575 C 194.428125 147.93645 198.328125 149.102075 198.43125 154.0427 L 202.579688 154.0427 L 201.834375 147.64895 Z M 186.810937 147.689575 " transform="matrix(0.833333,0,0,1.25,0,57.89975)"/>
<path style="fill-rule:nonzero;fill:rgb(100%,100%,0%);fill-opacity:1;stroke-width:0.5;stroke-linecap:butt;stroke-linejoin:miter;stroke:rgb(0%,0%,0%);stroke-opacity:1;stroke-miterlimit:4;" d="M 185.85 154.06145 L 202.795312 154.06145 C 203.151562 154.06145 203.446875 154.41145 203.446875 154.8427 C 203.446875 155.27395 203.151562 155.62395 202.795312 155.62395 L 185.85 155.62395 C 185.49375 155.62395 185.203125 155.27395 185.203125 154.8427 C 185.203125 154.41145 185.49375 154.06145 185.85 154.06145 Z M 185.85 154.06145 " transform="matrix(0.833333,0,0,1.25,0,57.89975)"/>
<path style="fill-rule:nonzero;fill:rgb(100%,100%,0%);fill-opacity:1;stroke-width:0.5;stroke-linecap:butt;stroke-linejoin:miter;stroke:rgb(0%,0%,0%);stroke-opacity:1;stroke-miterlimit:4;" d="M 192.009375 154.0302 C 192.028125 150.7177 194.273438 149.7802 194.282813 149.7802 C 194.282813 149.7802 196.626563 150.74895 196.645312 154.0302 L 192.009375 154.0302 " transform="matrix(0.833333,0,0,1.25,0,57.89975)"/>
<path style="fill-rule:nonzero;fill:rgb(100%,100%,0%);fill-opacity:1;stroke-width:0.5;stroke-linecap:butt;stroke-linejoin:miter;stroke:rgb(0%,0%,0%);stroke-opacity:1;stroke-miterlimit:4;" d="M 186.210938 145.04895 L 202.453125 145.04895 C 202.795312 145.04895 203.076562 145.3677 203.076562 145.7552 C 203.076562 146.1427 202.795312 146.458325 202.453125 146.458325 L 186.210938 146.458325 C 185.86875 146.458325 185.5875 146.1427 185.5875 145.7552 C 185.5875 145.3677 185.86875 145.04895 186.210938 145.04895 Z M 186.210938 145.04895 " transform="matrix(0.833333,0,0,1.25,0,57.89975)"/>
<path style="fill-rule:nonzero;fill:rgb(100%,100%,0%);fill-opacity:1;stroke-width:0.5;stroke-linecap:butt;stroke-linejoin:miter;stroke:rgb(0%,0%,0%);stroke-opacity:1;stroke-miterlimit:4;" d="M 186.548438 146.470825 L 202.0875 146.470825 C 202.415625 146.470825 202.682812 146.78645 202.682812 147.17395 C 202.682812 147.56145 202.415625 147.877075 202.0875 147.877075 L 186.548438 147.877075 C 186.225 147.877075 185.953125 147.56145 185.953125 147.17395 C 185.953125 146.78645 186.225 146.470825 186.548438 146.470825 Z M 186.548438 146.470825 " transform="matrix(0.833333,0,0,1.25,0,57.89975)"/>
<path style="fill-rule:nonzero;fill:rgb(100%,100%,0%);fill-opacity:1;stroke-width:0.5;stroke-linecap:butt;stroke-linejoin:miter;stroke:rgb(0%,0%,0%);stroke-opacity:1;stroke-miterlimit:4;" d="M 191.56875 135.8802 L 192.796875 135.883325 L 192.796875 136.752075 L 193.692187 136.752075 L 193.692187 135.86145 L 194.948437 135.8677 L 194.948437 136.7552 L 195.848437 136.7552 L 195.848437 135.864575 L 197.104687 135.864575 L 197.1 137.87395 C 197.1 138.189575 196.846875 138.395825 196.551562 138.395825 L 192.140625 138.395825 C 191.845313 138.395825 191.573437 138.158325 191.573437 137.8677 Z M 191.56875 135.8802 " transform="matrix(0.833333,0,0,1.25,0,57.89975)"/>
<path style="fill-rule:nonzero;fill:rgb(100%,100%,0%);fill-opacity:1;stroke-width:0.5;stroke-linecap:butt;stroke-linejoin:miter;stroke:rgb(0%,0%,0%);stroke-opacity:1;stroke-miterlimit:4;" d="M 196.190625 138.570825 L 196.467187 145.020825 L 192.164062 145.0052 L 192.45 138.552075 L 196.190625 138.570825 " transform="matrix(0.833333,0,0,1.25,0,57.89975)"/>
<path style="fill-rule:nonzero;fill:rgb(100%,100%,0%);fill-opacity:1;stroke-width:0.5;stroke-linecap:butt;stroke-linejoin:miter;stroke:rgb(0%,0%,0%);stroke-opacity:1;stroke-miterlimit:4;" d="M 190.940625 141.56145 L 191.071875 145.03645 L 186.946875 145.039575 L 187.064063 141.56145 Z M 190.940625 141.56145 " transform="matrix(0.833333,0,0,1.25,0,57.89975)"/>
<path style="fill-rule:nonzero;fill:rgb(100%,100%,0%);fill-opacity:1;stroke-width:0.5;stroke-linecap:butt;stroke-linejoin:miter;stroke:rgb(0%,0%,0%);stroke-opacity:1;stroke-miterlimit:4;" d="M 190.939437 141.56145 L 191.070687 145.03645 L 186.945687 145.039575 L 187.062875 141.56145 Z M 190.939437 141.56145 " transform="matrix(0.833333,0,0,1.25,8.840833,57.89975)"/>
<path style="fill-rule:nonzero;fill:rgb(100%,100%,0%);fill-opacity:1;stroke-width:0.5;stroke-linecap:butt;stroke-linejoin:miter;stroke:rgb(0%,0%,0%);stroke-opacity:1;stroke-miterlimit:4;" d="M 186.3 139.039575 L 187.5 139.0427 L 187.5 139.914575 L 188.376563 139.914575 L 188.376563 139.02395 L 189.604687 139.027075 L 189.604687 139.914575 L 190.485938 139.914575 L 190.485938 139.02395 L 191.714062 139.02395 L 191.714062 141.03645 C 191.714062 141.352075 191.465625 141.5552 191.179688 141.5552 L 186.8625 141.5552 C 186.571875 141.5552 186.304688 141.320825 186.3 141.0302 Z M 186.3 139.039575 " transform="matrix(0.833333,0,0,1.25,0,57.89975)"/>
<path style="fill-rule:nonzero;fill:rgb(100%,100%,0%);fill-opacity:1;stroke-width:0.5;stroke-linecap:butt;stroke-linejoin:miter;stroke:rgb(0%,0%,0%);stroke-opacity:1;stroke-miterlimit:4;" d="M 186.298812 139.039575 L 187.498812 139.0427 L 187.498812 139.914575 L 188.375375 139.914575 L 188.375375 139.02395 L 189.608187 139.027075 L 189.608187 139.914575 L 190.48475 139.914575 L 190.48475 139.02395 L 191.717562 139.02395 L 191.712875 141.03645 C 191.712875 141.352075 191.464437 141.5552 191.1785 141.5552 L 186.861312 141.5552 C 186.570687 141.5552 186.3035 141.320825 186.3035 141.0302 Z M 186.298812 139.039575 " transform="matrix(0.833333,0,0,1.25,8.840833,57.89975)"/>
<path style=" stroke:none;fill-rule:nonzero;fill:rgb(0%,0%,0%);fill-opacity:1;" d="M 161.582031 233.664062 C 161.5625 232.878906 162.3125 232.871094 162.304688 233.664062 L 162.304688 235.582031 L 161.582031 235.582031 L 161.582031 233.664062 "/>
<path style=" stroke:none;fill-rule:nonzero;fill:rgb(0%,0%,0%);fill-opacity:1;" d="M 157.140625 236.449219 C 157.140625 235.691406 157.839844 235.675781 157.832031 236.449219 L 157.832031 237.933594 L 157.140625 237.933594 L 157.140625 236.449219 "/>
<path style=" stroke:none;fill-rule:nonzero;fill:rgb(0%,0%,0%);fill-opacity:1;" d="M 166.007812 236.449219 C 166.007812 235.691406 166.707031 235.675781 166.699219 236.449219 L 166.699219 237.933594 L 166.007812 237.933594 L 166.007812 236.449219 "/>
<path style=" stroke:none;fill-rule:nonzero;fill:rgb(100%,100%,0%);fill-opacity:1;" d="M 173.542969 311.203125 C 170.355469 306.222656 171.882812 301.597656 171.890625 301.554688 C 171.894531 301.511719 175.207031 299.039062 178.445312 303.890625 L 173.542969 311.203125 "/>
<path style="fill-rule:nonzero;fill:rgb(100%,100%,0%);fill-opacity:1;stroke-width:0.5;stroke-linecap:butt;stroke-linejoin:miter;stroke:rgb(0%,0%,0%);stroke-opacity:1;stroke-miterlimit:4;" d="M 186.812038 147.691243 L 186.12565 154.03404 L 190.268851 154.042021 C 190.309447 148.796284 194.242518 147.922949 194.338581 147.939861 C 194.428085 147.936862 198.326355 149.099664 198.430457 154.04318 L 202.582528 154.042354 L 201.833872 147.651406 L 186.808735 147.687917 Z M 186.812038 147.691243 " transform="matrix(0.587174,-0.886995,0.59133,0.880761,-29.451216,343.886225)"/>
<path style="fill-rule:nonzero;fill:rgb(100%,100%,0%);fill-opacity:1;stroke-width:0.5;stroke-linecap:butt;stroke-linejoin:miter;stroke:rgb(0%,0%,0%);stroke-opacity:1;stroke-miterlimit:4;" d="M 185.849352 154.057373 L 202.795698 154.061888 C 203.152583 154.057622 203.445218 154.414419 203.444807 154.844209 C 203.444396 155.273999 203.152587 155.623211 202.797919 155.625274 L 185.849356 155.622961 C 185.492471 155.627227 185.200921 155.275958 185.201332 154.846168 C 185.200657 154.410851 185.492467 154.061639 185.849352 154.057373 Z M 185.849352 154.057373 " transform="matrix(0.587174,-0.886995,0.59133,0.880761,-29.451216,343.886225)"/>
<path style="fill-rule:nonzero;fill:rgb(100%,100%,0%);fill-opacity:1;stroke-width:0.5;stroke-linecap:butt;stroke-linejoin:miter;stroke:rgb(0%,0%,0%);stroke-opacity:1;stroke-miterlimit:4;" d="M 192.010153 154.030484 C 192.027362 150.717066 194.273529 149.781435 194.28457 149.783684 C 194.28457 149.783684 196.625682 150.748749 196.645039 154.032465 L 192.010153 154.030484 " transform="matrix(0.587174,-0.886995,0.59133,0.880761,-29.451216,343.886225)"/>
<path style="fill-rule:nonzero;fill:rgb(100%,100%,0%);fill-opacity:1;stroke-width:0.5;stroke-linecap:butt;stroke-linejoin:miter;stroke:rgb(0%,0%,0%);stroke-opacity:1;stroke-miterlimit:4;" d="M 186.211466 145.050716 L 202.457346 145.050552 C 202.796538 145.050643 203.076055 145.367619 203.078002 145.755432 C 203.076646 146.139919 202.797103 146.457133 202.455693 146.459244 L 186.209813 146.459409 C 185.868404 146.461519 185.588887 146.144543 185.589157 145.754528 C 185.58721 145.366715 185.866754 145.049501 186.211466 145.050716 Z M 186.211466 145.050716 " transform="matrix(0.587174,-0.886995,0.59133,0.880761,-29.451216,343.886225)"/>
<path style="fill-rule:nonzero;fill:rgb(100%,100%,0%);fill-opacity:1;stroke-width:0.5;stroke-linecap:butt;stroke-linejoin:miter;stroke:rgb(0%,0%,0%);stroke-opacity:1;stroke-miterlimit:4;" d="M 186.551176 146.470556 L 202.086635 146.468991 C 202.415872 146.472362 202.684348 146.787089 202.682992 147.171576 C 202.682722 147.561591 202.416436 147.878852 202.090503 147.878808 L 186.549523 147.879248 C 186.223589 147.879204 185.95733 147.562275 185.955383 147.174462 C 185.953436 146.786648 186.225242 146.470512 186.551176 146.470556 Z M 186.551176 146.470556 " transform="matrix(0.587174,-0.886995,0.59133,0.880761,-29.451216,343.886225)"/>
<path style="fill-rule:nonzero;fill:rgb(100%,100%,0%);fill-opacity:1;stroke-width:0.5;stroke-linecap:butt;stroke-linejoin:miter;stroke:rgb(0%,0%,0%);stroke-opacity:1;stroke-miterlimit:4;" d="M 191.570347 135.878273 L 192.797836 135.881497 L 192.796968 136.754334 L 193.689701 136.753063 L 193.692833 135.864765 L 194.949056 135.865881 L 194.948141 136.751976 L 195.846394 136.751829 L 195.844006 135.862407 L 197.102447 135.861321 L 197.103078 137.875485 C 197.104174 138.191479 196.847132 138.393867 196.553235 138.39504 L 192.141521 138.396056 C 191.844321 138.393903 191.570043 138.157601 191.568855 137.868123 L 191.56813 135.880475 Z M 191.570347 135.878273 " transform="matrix(0.587174,-0.886995,0.59133,0.880761,-29.451216,343.886225)"/>
<path style="fill-rule:nonzero;fill:rgb(100%,100%,0%);fill-opacity:1;stroke-width:0.5;stroke-linecap:butt;stroke-linejoin:miter;stroke:rgb(0%,0%,0%);stroke-opacity:1;stroke-miterlimit:4;" d="M 196.190222 138.570538 L 196.465785 145.02169 L 192.164618 145.005417 L 192.448115 138.554028 L 196.190222 138.570538 " transform="matrix(0.587174,-0.886995,0.59133,0.880761,-29.451216,343.886225)"/>
<path style="fill-rule:nonzero;fill:rgb(100%,100%,0%);fill-opacity:1;stroke-width:0.5;stroke-linecap:butt;stroke-linejoin:miter;stroke:rgb(0%,0%,0%);stroke-opacity:1;stroke-miterlimit:4;" d="M 190.939329 141.558349 L 191.074005 145.038032 L 186.946233 145.041154 L 187.060159 141.559033 L 190.942632 141.561675 Z M 190.939329 141.558349 " transform="matrix(0.587174,-0.886995,0.59133,0.880761,-29.451216,343.886225)"/>
<path style="fill-rule:nonzero;fill:rgb(100%,100%,0%);fill-opacity:1;stroke-width:0.5;stroke-linecap:butt;stroke-linejoin:miter;stroke:rgb(0%,0%,0%);stroke-opacity:1;stroke-miterlimit:4;" d="M 190.940308 141.559303 L 191.071681 145.035659 L 186.943909 145.038781 L 187.061138 141.559987 Z M 190.940308 141.559303 " transform="matrix(0.587174,-0.886995,0.59133,0.880761,-23.221886,334.476097)"/>
<path style="fill-rule:nonzero;fill:rgb(100%,100%,0%);fill-opacity:1;stroke-width:0.5;stroke-linecap:butt;stroke-linejoin:miter;stroke:rgb(0%,0%,0%);stroke-opacity:1;stroke-miterlimit:4;" d="M 186.297851 139.039471 L 187.498824 139.042601 L 187.497955 139.915439 L 188.37743 139.91412 L 188.377259 139.022497 L 189.604749 139.025721 L 189.607137 139.915142 L 190.484393 139.916026 L 190.48644 139.0222 L 191.71393 139.025424 L 191.711258 141.036262 C 191.714571 141.350054 191.466353 141.556893 191.176891 141.553663 L 186.860201 141.552804 C 186.571824 141.555101 186.303067 141.319923 186.301878 141.030445 Z M 186.297851 139.039471 " transform="matrix(0.587174,-0.886995,0.59133,0.880761,-29.451216,343.886225)"/>
<path style="fill-rule:nonzero;fill:rgb(100%,100%,0%);fill-opacity:1;stroke-width:0.5;stroke-linecap:butt;stroke-linejoin:miter;stroke:rgb(0%,0%,0%);stroke-opacity:1;stroke-miterlimit:4;" d="M 186.298829 139.040425 L 187.499803 139.043555 L 187.498934 139.916392 L 188.378409 139.915074 L 188.378238 139.023451 L 189.605728 139.026674 L 189.608115 139.916096 L 190.485372 139.91698 L 190.487419 139.023154 L 191.714909 139.026378 L 191.712237 141.037216 C 191.71555 141.351008 191.464029 141.55452 191.17787 141.554616 L 186.858962 141.555959 C 186.572803 141.556055 186.304046 141.320877 186.302857 141.031399 Z M 186.298829 139.040425 " transform="matrix(0.587174,-0.886995,0.59133,0.880761,-23.221886,334.476097)"/>
<path style=" stroke:none;fill-rule:nonzero;fill:rgb(0%,0%,0%);fill-opacity:1;" d="M 167.546875 295.742188 C 167.164062 295.214844 167.6875 294.40625 168.058594 294.972656 L 168.964844 296.328125 L 168.457031 297.09375 L 167.550781 295.742188 "/>
<path style=" stroke:none;fill-rule:nonzero;fill:rgb(0%,0%,0%);fill-opacity:1;" d="M 165.738281 302.433594 C 165.378906 301.902344 165.863281 301.148438 166.222656 301.699219 L 166.925781 302.746094 L 166.441406 303.480469 L 165.738281 302.433594 "/>
<path style=" stroke:none;fill-rule:nonzero;fill:rgb(0%,0%,0%);fill-opacity:1;" d="M 171.984375 292.996094 C 171.625 292.464844 172.113281 291.707031 172.472656 292.261719 L 173.171875 293.308594 L 172.6875 294.039062 L 171.984375 292.996094 "/>
<path style=" stroke:none;fill-rule:nonzero;fill:rgb(100%,100%,0%);fill-opacity:1;" d="M 196.585938 193.039062 C 196.699219 186.136719 199.964844 184.503906 199.988281 184.476562 C 200.011719 184.457031 203.511719 186.238281 203.5 193.101562 L 196.585938 193.039062 "/>
<path style="fill-rule:nonzero;fill:rgb(100%,100%,0%);fill-opacity:1;stroke-width:0.5;stroke-linecap:butt;stroke-linejoin:miter;stroke:rgb(0%,0%,0%);stroke-opacity:1;stroke-miterlimit:4;" d="M 186.809638 147.690625 L 186.12995 154.034375 L 190.269013 154.04375 C 190.306512 148.79375 194.244012 147.921875 194.337762 147.940625 C 194.426825 147.934375 198.326825 149.1 198.42995 154.04375 L 202.583075 154.04375 L 201.833075 147.65 L 186.809638 147.6875 Z M 186.809638 147.690625 " transform="matrix(0.833333,0,0,1.25,38.094833,0)"/>
<path style="fill-rule:nonzero;fill:rgb(100%,100%,0%);fill-opacity:1;stroke-width:0.5;stroke-linecap:butt;stroke-linejoin:miter;stroke:rgb(0%,0%,0%);stroke-opacity:1;stroke-miterlimit:4;" d="M 185.8487 154.059375 L 202.794013 154.059375 C 203.15495 154.059375 203.445575 154.4125 203.445575 154.84375 C 203.445575 155.275 203.15495 155.625 202.794013 155.625 L 185.8487 155.625 C 185.49245 155.625 185.201825 155.275 185.201825 154.84375 C 185.201825 154.4125 185.49245 154.059375 185.8487 154.059375 Z M 185.8487 154.059375 " transform="matrix(0.833333,0,0,1.25,38.094833,0)"/>
<path style="fill-rule:nonzero;fill:rgb(100%,100%,0%);fill-opacity:1;stroke-width:0.5;stroke-linecap:butt;stroke-linejoin:miter;stroke:rgb(0%,0%,0%);stroke-opacity:1;stroke-miterlimit:4;" d="M 192.008075 154.03125 C 192.026825 150.71875 194.272137 149.78125 194.281512 149.78125 C 194.2862 149.78125 196.625262 150.746875 196.644013 154.03125 L 192.008075 154.03125 " transform="matrix(0.833333,0,0,1.25,38.094833,0)"/>
<path style="fill-rule:nonzero;fill:rgb(100%,100%,0%);fill-opacity:1;stroke-width:0.5;stroke-linecap:butt;stroke-linejoin:miter;stroke:rgb(0%,0%,0%);stroke-opacity:1;stroke-miterlimit:4;" d="M 186.209637 145.05 L 202.456513 145.05 C 202.7987 145.05 203.07995 145.36875 203.07995 145.753125 C 203.07995 146.140625 202.7987 146.459375 202.456513 146.459375 L 186.209637 146.459375 C 185.86745 146.459375 185.5862 146.14375 185.5862 145.753125 C 185.5862 145.36875 185.86745 145.05 186.209637 145.05 Z M 186.209637 145.05 " transform="matrix(0.833333,0,0,1.25,38.094833,0)"/>
<path style="fill-rule:nonzero;fill:rgb(100%,100%,0%);fill-opacity:1;stroke-width:0.5;stroke-linecap:butt;stroke-linejoin:miter;stroke:rgb(0%,0%,0%);stroke-opacity:1;stroke-miterlimit:4;" d="M 186.551825 146.46875 L 202.0862 146.46875 C 202.414325 146.46875 202.681512 146.7875 202.681512 147.175 C 202.681512 147.5625 202.414325 147.878125 202.0862 147.878125 L 186.551825 147.878125 C 186.2237 147.878125 185.956513 147.5625 185.956513 147.175 C 185.956513 146.7875 186.2237 146.46875 186.551825 146.46875 Z M 186.551825 146.46875 " transform="matrix(0.833333,0,0,1.25,38.094833,0)"/>
<path style="fill-rule:nonzero;fill:rgb(100%,100%,0%);fill-opacity:1;stroke-width:0.5;stroke-linecap:butt;stroke-linejoin:miter;stroke:rgb(0%,0%,0%);stroke-opacity:1;stroke-miterlimit:4;" d="M 191.572137 135.88125 L 192.795575 135.88125 L 192.795575 136.753125 L 193.690888 136.753125 L 193.690888 135.8625 L 194.947137 135.865625 L 194.947137 136.753125 L 195.847138 136.753125 L 195.847138 135.8625 L 197.103387 135.8625 L 197.103387 137.875 C 197.103387 138.190625 196.850262 138.39375 196.55495 138.39375 L 192.144013 138.39375 C 191.844012 138.39375 191.572137 138.159375 191.572137 137.86875 L 191.56745 135.88125 Z M 191.572137 135.88125 " transform="matrix(0.833333,0,0,1.25,38.094833,0)"/>
<path style="fill-rule:nonzero;fill:rgb(100%,100%,0%);fill-opacity:1;stroke-width:0.5;stroke-linecap:butt;stroke-linejoin:miter;stroke:rgb(0%,0%,0%);stroke-opacity:1;stroke-miterlimit:4;" d="M 196.189325 138.56875 L 196.465888 145.021875 L 192.162762 145.00625 L 192.4487 138.553125 L 196.189325 138.56875 " transform="matrix(0.833333,0,0,1.25,38.094833,0)"/>
<path style="fill-rule:nonzero;fill:rgb(100%,100%,0%);fill-opacity:1;stroke-width:0.5;stroke-linecap:butt;stroke-linejoin:miter;stroke:rgb(0%,0%,0%);stroke-opacity:1;stroke-miterlimit:4;" d="M 190.939325 141.559375 L 191.070575 145.0375 L 186.945575 145.040625 L 187.062762 141.559375 Z M 190.939325 141.559375 " transform="matrix(0.833333,0,0,1.25,38.094833,0)"/>
<path style="fill-rule:nonzero;fill:rgb(100%,100%,0%);fill-opacity:1;stroke-width:0.5;stroke-linecap:butt;stroke-linejoin:miter;stroke:rgb(0%,0%,0%);stroke-opacity:1;stroke-miterlimit:4;" d="M 190.938137 141.559375 L 191.069387 145.0375 L 186.944387 145.040625 L 187.061575 141.559375 L 190.942825 141.559375 Z M 190.938137 141.559375 " transform="matrix(0.833333,0,0,1.25,46.935667,0)"/>
<path style="fill-rule:nonzero;fill:rgb(100%,100%,0%);fill-opacity:1;stroke-width:0.5;stroke-linecap:butt;stroke-linejoin:miter;stroke:rgb(0%,0%,0%);stroke-opacity:1;stroke-miterlimit:4;" d="M 186.2987 139.040625 L 187.4987 139.04375 L 187.4987 139.915625 L 188.375262 139.915625 L 188.375262 139.021875 L 189.608075 139.028125 L 189.608075 139.915625 L 190.484637 139.915625 L 190.484637 139.021875 L 191.71745 139.025 L 191.712762 141.0375 C 191.712762 141.35 191.464325 141.55625 191.178387 141.55625 L 186.8612 141.55625 C 186.570575 141.55625 186.303387 141.31875 186.303387 141.03125 Z M 186.2987 139.040625 " transform="matrix(0.833333,0,0,1.25,38.094833,0)"/>
<path style="fill-rule:nonzero;fill:rgb(100%,100%,0%);fill-opacity:1;stroke-width:0.5;stroke-linecap:butt;stroke-linejoin:miter;stroke:rgb(0%,0%,0%);stroke-opacity:1;stroke-miterlimit:4;" d="M 186.3022 139.040625 L 187.497512 139.04375 L 187.497512 139.915625 L 188.378762 139.915625 L 188.378762 139.021875 L 189.606887 139.028125 L 189.606887 139.915625 L 190.48345 139.915625 L 190.48345 139.021875 L 191.716262 139.025 L 191.711575 141.0375 C 191.711575 141.35 191.463137 141.55625 191.1772 141.55625 L 186.860012 141.55625 C 186.569387 141.55625 186.3022 141.31875 186.3022 141.03125 L 186.297512 139.040625 Z M 186.3022 139.040625 " transform="matrix(0.833333,0,0,1.25,46.935667,0)"/>
<path style=" stroke:none;fill-rule:nonzero;fill:rgb(0%,0%,0%);fill-opacity:1;" d="M 199.679688 175.761719 C 199.65625 174.980469 200.410156 174.96875 200.398438 175.761719 L 200.398438 177.683594 L 199.679688 177.683594 L 199.679688 175.761719 "/>
<path style=" stroke:none;fill-rule:nonzero;fill:rgb(0%,0%,0%);fill-opacity:1;" d="M 195.238281 178.550781 C 195.234375 177.792969 195.933594 177.777344 195.925781 178.550781 L 195.925781 180.035156 L 195.238281 180.035156 L 195.238281 178.550781 "/>
<path style=" stroke:none;fill-rule:nonzero;fill:rgb(0%,0%,0%);fill-opacity:1;" d="M 204.105469 178.550781 C 204.101562 177.792969 204.800781 177.777344 204.792969 178.550781 L 204.792969 180.035156 L 204.105469 180.035156 L 204.105469 178.550781 "/>
<path style=" stroke:none;fill-rule:nonzero;fill:rgb(100%,100%,0%);fill-opacity:1;" d="M 241.335938 193.039062 C 241.222656 186.136719 237.957031 184.503906 237.933594 184.476562 C 237.910156 184.457031 234.410156 186.238281 234.421875 193.101562 L 241.335938 193.039062 "/>
<path style="fill-rule:nonzero;fill:rgb(100%,100%,0%);fill-opacity:1;stroke-width:0.5;stroke-linecap:butt;stroke-linejoin:miter;stroke:rgb(0%,0%,0%);stroke-opacity:1;stroke-miterlimit:4;" d="M 186.809137 147.690625 L 186.12945 154.034375 L 190.268512 154.04375 C 190.3107 148.79375 194.243512 147.921875 194.337262 147.940625 C 194.426325 147.934375 198.326325 149.1 198.42945 154.04375 L 202.582575 154.04375 L 201.832575 147.65 L 186.809137 147.6875 Z M 186.809137 147.690625 " transform="matrix(-0.833333,0,0,1.25,399.826625,0)"/>
<path style="fill-rule:nonzero;fill:rgb(100%,100%,0%);fill-opacity:1;stroke-width:0.5;stroke-linecap:butt;stroke-linejoin:miter;stroke:rgb(0%,0%,0%);stroke-opacity:1;stroke-miterlimit:4;" d="M 185.8482 154.059375 L 202.7982 154.059375 C 203.15445 154.059375 203.445075 154.4125 203.445075 154.84375 C 203.445075 155.275 203.15445 155.625 202.7982 155.625 L 185.8482 155.625 C 185.49195 155.625 185.201325 155.275 185.201325 154.84375 C 185.201325 154.4125 185.49195 154.059375 185.8482 154.059375 Z M 185.8482 154.059375 " transform="matrix(-0.833333,0,0,1.25,399.826625,0)"/>
<path style="fill-rule:nonzero;fill:rgb(100%,100%,0%);fill-opacity:1;stroke-width:0.5;stroke-linecap:butt;stroke-linejoin:miter;stroke:rgb(0%,0%,0%);stroke-opacity:1;stroke-miterlimit:4;" d="M 192.012262 154.03125 C 192.026325 150.71875 194.271637 149.78125 194.2857 149.78125 C 194.2857 149.78125 196.624762 150.746875 196.643512 154.03125 L 192.012262 154.03125 " transform="matrix(-0.833333,0,0,1.25,399.826625,0)"/>
<path style="fill-rule:nonzero;fill:rgb(100%,100%,0%);fill-opacity:1;stroke-width:0.5;stroke-linecap:butt;stroke-linejoin:miter;stroke:rgb(0%,0%,0%);stroke-opacity:1;stroke-miterlimit:4;" d="M 186.209137 145.05 L 202.456012 145.05 C 202.7982 145.05 203.07945 145.36875 203.07945 145.753125 C 203.07945 146.140625 202.7982 146.459375 202.456012 146.459375 L 186.209137 146.459375 C 185.86695 146.459375 185.5857 146.14375 185.5857 145.753125 C 185.5857 145.36875 185.86695 145.05 186.209137 145.05 Z M 186.209137 145.05 " transform="matrix(-0.833333,0,0,1.25,399.826625,0)"/>
<path style="fill-rule:nonzero;fill:rgb(100%,100%,0%);fill-opacity:1;stroke-width:0.5;stroke-linecap:butt;stroke-linejoin:miter;stroke:rgb(0%,0%,0%);stroke-opacity:1;stroke-miterlimit:4;" d="M 186.551325 146.46875 L 202.0857 146.46875 C 202.413825 146.46875 202.681012 146.7875 202.681012 147.175 C 202.681012 147.5625 202.413825 147.878125 202.0857 147.878125 L 186.551325 147.878125 C 186.2232 147.878125 185.956012 147.5625 185.956012 147.175 C 185.956012 146.7875 186.2232 146.46875 186.551325 146.46875 Z M 186.551325 146.46875 " transform="matrix(-0.833333,0,0,1.25,399.826625,0)"/>
<path style="fill-rule:nonzero;fill:rgb(100%,100%,0%);fill-opacity:1;stroke-width:0.5;stroke-linecap:butt;stroke-linejoin:miter;stroke:rgb(0%,0%,0%);stroke-opacity:1;stroke-miterlimit:4;" d="M 191.571637 135.88125 L 192.795075 135.88125 L 192.795075 136.753125 L 193.690387 136.753125 L 193.690387 135.8625 L 194.946637 135.865625 L 194.946637 136.753125 L 195.846637 136.753125 L 195.846637 135.8625 L 197.102887 135.8625 L 197.102887 137.875 C 197.102887 138.190625 196.849762 138.39375 196.55445 138.39375 L 192.143512 138.39375 C 191.843512 138.39375 191.571637 138.159375 191.571637 137.86875 L 191.56695 135.88125 Z M 191.571637 135.88125 " transform="matrix(-0.833333,0,0,1.25,399.826625,0)"/>
<path style="fill-rule:nonzero;fill:rgb(100%,100%,0%);fill-opacity:1;stroke-width:0.5;stroke-linecap:butt;stroke-linejoin:miter;stroke:rgb(0%,0%,0%);stroke-opacity:1;stroke-miterlimit:4;" d="M 196.188825 138.56875 L 196.465387 145.021875 L 192.162262 145.00625 L 192.4482 138.553125 L 196.188825 138.56875 " transform="matrix(-0.833333,0,0,1.25,399.826625,0)"/>
<path style="fill-rule:nonzero;fill:rgb(100%,100%,0%);fill-opacity:1;stroke-width:0.5;stroke-linecap:butt;stroke-linejoin:miter;stroke:rgb(0%,0%,0%);stroke-opacity:1;stroke-miterlimit:4;" d="M 190.938825 141.559375 L 191.070075 145.0375 L 186.945075 145.040625 L 187.062262 141.559375 Z M 190.938825 141.559375 " transform="matrix(-0.833333,0,0,1.25,399.826625,0)"/>
<path style="fill-rule:nonzero;fill:rgb(100%,100%,0%);fill-opacity:1;stroke-width:0.5;stroke-linecap:butt;stroke-linejoin:miter;stroke:rgb(0%,0%,0%);stroke-opacity:1;stroke-miterlimit:4;" d="M 190.942325 141.559375 L 191.073575 145.0375 L 186.943888 145.040625 L 187.061075 141.559375 L 190.942325 141.559375 L 190.937637 141.559375 Z M 190.942325 141.559375 " transform="matrix(-0.833333,0,0,1.25,390.985792,0)"/>
<path style="fill-rule:nonzero;fill:rgb(100%,100%,0%);fill-opacity:1;stroke-width:0.5;stroke-linecap:butt;stroke-linejoin:miter;stroke:rgb(0%,0%,0%);stroke-opacity:1;stroke-miterlimit:4;" d="M 186.2982 139.040625 L 187.4982 139.04375 L 187.4982 139.915625 L 188.374762 139.915625 L 188.374762 139.021875 L 189.607575 139.028125 L 189.607575 139.915625 L 190.484137 139.915625 L 190.484137 139.021875 L 191.71695 139.025 L 191.712262 141.0375 C 191.712262 141.35 191.463825 141.55625 191.177887 141.55625 L 186.8607 141.55625 C 186.570075 141.55625 186.302887 141.31875 186.302887 141.03125 Z M 186.2982 139.040625 " transform="matrix(-0.833333,0,0,1.25,399.826625,0)"/>
<path style="fill-rule:nonzero;fill:rgb(100%,100%,0%);fill-opacity:1;stroke-width:0.5;stroke-linecap:butt;stroke-linejoin:miter;stroke:rgb(0%,0%,0%);stroke-opacity:1;stroke-miterlimit:4;" d="M 186.3017 139.040625 L 187.5017 139.04375 L 187.5017 139.915625 L 188.378263 139.915625 L 188.378263 139.021875 L 189.606388 139.028125 L 189.606388 139.915625 L 190.487638 139.915625 L 190.487638 139.021875 L 191.715763 139.025 L 191.715763 141.0375 C 191.715763 141.35 191.467325 141.55625 191.1767 141.55625 L 186.859512 141.55625 C 186.573575 141.55625 186.3017 141.31875 186.3017 141.03125 L 186.297012 139.040625 Z M 186.3017 139.040625 " transform="matrix(-0.833333,0,0,1.25,390.985792,0)"/>
<path style=" stroke:none;fill-rule:nonzero;fill:rgb(0%,0%,0%);fill-opacity:1;" d="M 238.242188 175.761719 C 238.265625 174.980469 237.511719 174.96875 237.523438 175.761719 L 237.523438 177.683594 L 238.242188 177.683594 L 238.242188 175.761719 "/>
<path style=" stroke:none;fill-rule:nonzero;fill:rgb(0%,0%,0%);fill-opacity:1;" d="M 242.683594 178.550781 C 242.6875 177.792969 241.988281 177.777344 241.996094 178.550781 L 241.996094 180.035156 L 242.683594 180.035156 L 242.683594 178.550781 "/>
<path style=" stroke:none;fill-rule:nonzero;fill:rgb(0%,0%,0%);fill-opacity:1;" d="M 233.816406 178.550781 C 233.820312 177.792969 233.121094 177.777344 233.128906 178.550781 L 233.128906 180.035156 L 233.816406 180.035156 L 233.816406 178.550781 "/>
<path style=" stroke:none;fill-rule:nonzero;fill:rgb(100%,100%,0%);fill-opacity:1;" d="M 241.335938 250.9375 C 241.222656 244.035156 237.957031 242.402344 237.933594 242.378906 C 237.910156 242.355469 234.410156 244.136719 234.421875 251 L 241.335938 250.9375 "/>
<path style="fill-rule:nonzero;fill:rgb(100%,100%,0%);fill-opacity:1;stroke-width:0.5;stroke-linecap:butt;stroke-linejoin:miter;stroke:rgb(0%,0%,0%);stroke-opacity:1;stroke-miterlimit:4;" d="M 186.809137 147.689575 L 186.12945 154.033325 L 190.268512 154.0427 C 190.3107 148.795825 194.243512 147.920825 194.337262 147.939575 C 194.426325 147.93645 198.326325 149.102075 198.42945 154.0427 L 202.582575 154.0427 L 201.832575 147.64895 Z M 186.809137 147.689575 " transform="matrix(-0.833333,0,0,1.25,399.826625,57.89975)"/>
<path style="fill-rule:nonzero;fill:rgb(100%,100%,0%);fill-opacity:1;stroke-width:0.5;stroke-linecap:butt;stroke-linejoin:miter;stroke:rgb(0%,0%,0%);stroke-opacity:1;stroke-miterlimit:4;" d="M 185.8482 154.06145 L 202.7982 154.06145 C 203.15445 154.06145 203.445075 154.41145 203.445075 154.8427 C 203.445075 155.27395 203.15445 155.62395 202.7982 155.62395 L 185.8482 155.62395 C 185.49195 155.62395 185.201325 155.27395 185.201325 154.8427 C 185.201325 154.41145 185.49195 154.06145 185.8482 154.06145 Z M 185.8482 154.06145 " transform="matrix(-0.833333,0,0,1.25,399.826625,57.89975)"/>
<path style="fill-rule:nonzero;fill:rgb(100%,100%,0%);fill-opacity:1;stroke-width:0.5;stroke-linecap:butt;stroke-linejoin:miter;stroke:rgb(0%,0%,0%);stroke-opacity:1;stroke-miterlimit:4;" d="M 192.012262 154.0302 C 192.026325 150.7177 194.271637 149.7802 194.2857 149.7802 C 194.2857 149.7802 196.624762 150.74895 196.643512 154.0302 L 192.012262 154.0302 " transform="matrix(-0.833333,0,0,1.25,399.826625,57.89975)"/>
<path style="fill-rule:nonzero;fill:rgb(100%,100%,0%);fill-opacity:1;stroke-width:0.5;stroke-linecap:butt;stroke-linejoin:miter;stroke:rgb(0%,0%,0%);stroke-opacity:1;stroke-miterlimit:4;" d="M 186.209137 145.04895 L 202.456012 145.04895 C 202.7982 145.04895 203.07945 145.3677 203.07945 145.7552 C 203.07945 146.1427 202.7982 146.458325 202.456012 146.458325 L 186.209137 146.458325 C 185.86695 146.458325 185.5857 146.1427 185.5857 145.7552 C 185.5857 145.3677 185.86695 145.04895 186.209137 145.04895 Z M 186.209137 145.04895 " transform="matrix(-0.833333,0,0,1.25,399.826625,57.89975)"/>
<path style="fill-rule:nonzero;fill:rgb(100%,100%,0%);fill-opacity:1;stroke-width:0.5;stroke-linecap:butt;stroke-linejoin:miter;stroke:rgb(0%,0%,0%);stroke-opacity:1;stroke-miterlimit:4;" d="M 186.551325 146.470825 L 202.0857 146.470825 C 202.413825 146.470825 202.681012 146.78645 202.681012 147.17395 C 202.681012 147.56145 202.413825 147.877075 202.0857 147.877075 L 186.551325 147.877075 C 186.2232 147.877075 185.956012 147.56145 185.956012 147.17395 C 185.956012 146.78645 186.2232 146.470825 186.551325 146.470825 Z M 186.551325 146.470825 " transform="matrix(-0.833333,0,0,1.25,399.826625,57.89975)"/>
<path style="fill-rule:nonzero;fill:rgb(100%,100%,0%);fill-opacity:1;stroke-width:0.5;stroke-linecap:butt;stroke-linejoin:miter;stroke:rgb(0%,0%,0%);stroke-opacity:1;stroke-miterlimit:4;" d="M 191.571637 135.8802 L 192.795075 135.883325 L 192.795075 136.752075 L 193.690387 136.752075 L 193.690387 135.86145 L 194.946637 135.8677 L 194.946637 136.7552 L 195.846637 136.7552 L 195.846637 135.864575 L 197.102887 135.864575 L 197.102887 137.87395 C 197.102887 138.189575 196.849762 138.395825 196.55445 138.395825 L 192.143512 138.395825 C 191.843512 138.395825 191.571637 138.158325 191.571637 137.8677 L 191.56695 135.8802 Z M 191.571637 135.8802 " transform="matrix(-0.833333,0,0,1.25,399.826625,57.89975)"/>
<path style="fill-rule:nonzero;fill:rgb(100%,100%,0%);fill-opacity:1;stroke-width:0.5;stroke-linecap:butt;stroke-linejoin:miter;stroke:rgb(0%,0%,0%);stroke-opacity:1;stroke-miterlimit:4;" d="M 196.188825 138.570825 L 196.465387 145.020825 L 192.162262 145.0052 L 192.4482 138.552075 L 196.188825 138.570825 " transform="matrix(-0.833333,0,0,1.25,399.826625,57.89975)"/>
<path style="fill-rule:nonzero;fill:rgb(100%,100%,0%);fill-opacity:1;stroke-width:0.5;stroke-linecap:butt;stroke-linejoin:miter;stroke:rgb(0%,0%,0%);stroke-opacity:1;stroke-miterlimit:4;" d="M 190.938825 141.56145 L 191.070075 145.03645 L 186.945075 145.039575 L 187.062262 141.56145 Z M 190.938825 141.56145 " transform="matrix(-0.833333,0,0,1.25,399.826625,57.89975)"/>
<path style="fill-rule:nonzero;fill:rgb(100%,100%,0%);fill-opacity:1;stroke-width:0.5;stroke-linecap:butt;stroke-linejoin:miter;stroke:rgb(0%,0%,0%);stroke-opacity:1;stroke-miterlimit:4;" d="M 190.942325 141.56145 L 191.073575 145.03645 L 186.943888 145.039575 L 187.061075 141.56145 L 190.942325 141.56145 L 190.937637 141.56145 Z M 190.942325 141.56145 " transform="matrix(-0.833333,0,0,1.25,390.985792,57.89975)"/>
<path style="fill-rule:nonzero;fill:rgb(100%,100%,0%);fill-opacity:1;stroke-width:0.5;stroke-linecap:butt;stroke-linejoin:miter;stroke:rgb(0%,0%,0%);stroke-opacity:1;stroke-miterlimit:4;" d="M 186.2982 139.039575 L 187.4982 139.0427 L 187.4982 139.914575 L 188.374762 139.914575 L 188.374762 139.02395 L 189.607575 139.027075 L 189.607575 139.914575 L 190.484137 139.914575 L 190.484137 139.02395 L 191.71695 139.02395 L 191.712262 141.03645 C 191.712262 141.352075 191.463825 141.5552 191.177887 141.5552 L 186.8607 141.5552 C 186.570075 141.5552 186.302887 141.320825 186.302887 141.0302 Z M 186.2982 139.039575 " transform="matrix(-0.833333,0,0,1.25,399.826625,57.89975)"/>
<path style="fill-rule:nonzero;fill:rgb(100%,100%,0%);fill-opacity:1;stroke-width:0.5;stroke-linecap:butt;stroke-linejoin:miter;stroke:rgb(0%,0%,0%);stroke-opacity:1;stroke-miterlimit:4;" d="M 186.3017 139.039575 L 187.5017 139.0427 L 187.5017 139.914575 L 188.378263 139.914575 L 188.378263 139.02395 L 189.606388 139.027075 L 189.606388 139.914575 L 190.487638 139.914575 L 190.487638 139.02395 L 191.715763 139.02395 L 191.715763 141.03645 C 191.715763 141.352075 191.467325 141.5552 191.1767 141.5552 L 186.859512 141.5552 C 186.573575 141.5552 186.3017 141.320825 186.3017 141.0302 L 186.297012 139.039575 Z M 186.3017 139.039575 " transform="matrix(-0.833333,0,0,1.25,390.985792,57.89975)"/>
<path style=" stroke:none;fill-rule:nonzero;fill:rgb(0%,0%,0%);fill-opacity:1;" d="M 238.242188 233.664062 C 238.265625 232.878906 237.511719 232.871094 237.523438 233.664062 L 237.523438 235.582031 L 238.242188 235.582031 L 238.242188 233.664062 "/>
<path style=" stroke:none;fill-rule:nonzero;fill:rgb(0%,0%,0%);fill-opacity:1;" d="M 242.683594 236.449219 C 242.6875 235.691406 241.988281 235.675781 241.996094 236.449219 L 241.996094 237.933594 L 242.683594 237.933594 L 242.683594 236.449219 "/>
<path style=" stroke:none;fill-rule:nonzero;fill:rgb(0%,0%,0%);fill-opacity:1;" d="M 233.816406 236.449219 C 233.820312 235.691406 233.121094 235.675781 233.128906 236.449219 L 233.128906 237.933594 L 233.816406 237.933594 L 233.816406 236.449219 "/>
<path style=" stroke:none;fill-rule:nonzero;fill:rgb(100%,100%,0%);fill-opacity:1;" d="M 226.285156 311.203125 C 229.46875 306.222656 227.941406 301.597656 227.9375 301.554688 C 227.929688 301.511719 224.621094 299.039062 221.382812 303.890625 L 226.285156 311.203125 "/>
<path style="fill-rule:nonzero;fill:rgb(100%,100%,0%);fill-opacity:1;stroke-width:0.5;stroke-linecap:butt;stroke-linejoin:miter;stroke:rgb(0%,0%,0%);stroke-opacity:1;stroke-miterlimit:4;" d="M 186.81077 147.689966 L 186.127685 154.036089 L 190.270886 154.04407 C 190.308178 148.795006 194.241249 147.921672 194.337313 147.938584 C 194.426817 147.935585 198.328389 149.101713 198.432492 154.045229 L 202.584563 154.044403 L 201.832604 147.650129 Z M 186.81077 147.689966 " transform="matrix(-0.587174,-0.886995,-0.59133,0.880761,429.277841,343.886225)"/>
<path style="fill-rule:nonzero;fill:rgb(100%,100%,0%);fill-opacity:1;stroke-width:0.5;stroke-linecap:butt;stroke-linejoin:miter;stroke:rgb(0%,0%,0%);stroke-opacity:1;stroke-miterlimit:4;" d="M 185.851387 154.059422 L 202.794429 154.060611 C 203.154618 154.059671 203.44395 154.413142 203.443539 154.842932 C 203.446431 155.276048 203.154621 155.62526 202.796651 155.623997 L 185.851391 155.62501 C 185.491202 155.62595 185.199653 155.274681 185.200064 154.844891 C 185.202692 154.4129 185.491199 154.060362 185.851387 154.059422 Z M 185.851387 154.059422 " transform="matrix(-0.587174,-0.886995,-0.59133,0.880761,429.277841,343.886225)"/>
<path style="fill-rule:nonzero;fill:rgb(100%,100%,0%);fill-opacity:1;stroke-width:0.5;stroke-linecap:butt;stroke-linejoin:miter;stroke:rgb(0%,0%,0%);stroke-opacity:1;stroke-miterlimit:4;" d="M 192.008885 154.029207 C 192.029396 150.719115 194.272261 149.780158 194.283302 149.782406 C 194.283302 149.782406 196.624414 150.747472 196.643771 154.031188 L 192.008885 154.029207 " transform="matrix(-0.587174,-0.886995,-0.59133,0.880761,429.277841,343.886225)"/>
<path style="fill-rule:nonzero;fill:rgb(100%,100%,0%);fill-opacity:1;stroke-width:0.5;stroke-linecap:butt;stroke-linejoin:miter;stroke:rgb(0%,0%,0%);stroke-opacity:1;stroke-miterlimit:4;" d="M 186.210198 145.049439 L 202.456078 145.049274 C 202.79527 145.049366 203.07809 145.369668 203.076734 145.754155 C 203.078681 146.141968 202.799137 146.459182 202.454425 146.457967 L 186.208545 146.458131 C 185.867135 146.460242 185.587618 146.143266 185.587889 145.753251 C 185.589245 145.368764 185.868788 145.05155 186.210198 145.049439 Z M 186.210198 145.049439 " transform="matrix(-0.587174,-0.886995,-0.59133,0.880761,429.277841,343.886225)"/>
<path style="fill-rule:nonzero;fill:rgb(100%,100%,0%);fill-opacity:1;stroke-width:0.5;stroke-linecap:butt;stroke-linejoin:miter;stroke:rgb(0%,0%,0%);stroke-opacity:1;stroke-miterlimit:4;" d="M 186.549908 146.469279 L 202.08867 146.47104 C 202.414604 146.471085 202.68308 146.785812 202.685027 147.173625 C 202.684757 147.56364 202.415168 147.877575 202.089234 147.87753 L 186.548255 147.877971 C 186.222321 147.877927 185.956062 147.560997 185.954115 147.173184 C 185.955471 146.788697 186.223974 146.469234 186.549908 146.469279 Z M 186.549908 146.469279 " transform="matrix(-0.587174,-0.886995,-0.59133,0.880761,429.277841,343.886225)"/>
<path style="fill-rule:nonzero;fill:rgb(100%,100%,0%);fill-opacity:1;stroke-width:0.5;stroke-linecap:butt;stroke-linejoin:miter;stroke:rgb(0%,0%,0%);stroke-opacity:1;stroke-miterlimit:4;" d="M 191.572382 135.880322 L 192.796568 135.880219 L 192.7957 136.753057 L 193.691735 136.755112 L 193.691565 135.863488 L 194.947788 135.864603 L 194.950176 136.754025 L 195.848429 136.753878 L 195.846041 135.864456 L 197.104481 135.86337 L 197.10181 137.874208 C 197.102905 138.190202 196.849167 138.395916 196.551967 138.393763 L 192.140252 138.394779 C 191.846355 138.395952 191.572078 138.15965 191.570889 137.870172 L 191.566861 135.879198 L 191.570164 135.882524 Z M 191.572382 135.880322 " transform="matrix(-0.587174,-0.886995,-0.59133,0.880761,429.277841,343.886225)"/>
<path style="fill-rule:nonzero;fill:rgb(100%,100%,0%);fill-opacity:1;stroke-width:0.5;stroke-linecap:butt;stroke-linejoin:miter;stroke:rgb(0%,0%,0%);stroke-opacity:1;stroke-miterlimit:4;" d="M 196.188953 138.569261 L 196.46782 145.023739 L 192.16335 145.00414 L 192.446847 138.55275 L 196.188953 138.569261 " transform="matrix(-0.587174,-0.886995,-0.59133,0.880761,429.277841,343.886225)"/>
<path style="fill-rule:nonzero;fill:rgb(100%,100%,0%);fill-opacity:1;stroke-width:0.5;stroke-linecap:butt;stroke-linejoin:miter;stroke:rgb(0%,0%,0%);stroke-opacity:1;stroke-miterlimit:4;" d="M 190.941364 141.560398 L 191.072737 145.036755 L 186.944964 145.039877 L 187.062193 141.561082 Z M 190.941364 141.560398 " transform="matrix(-0.587174,-0.886995,-0.59133,0.880761,429.277841,343.886225)"/>
<path style="fill-rule:nonzero;fill:rgb(100%,100%,0%);fill-opacity:1;stroke-width:0.5;stroke-linecap:butt;stroke-linejoin:miter;stroke:rgb(0%,0%,0%);stroke-opacity:1;stroke-miterlimit:4;" d="M 190.93904 141.558026 L 191.073716 145.037708 L 186.945943 145.04083 L 187.063172 141.562036 L 190.942342 141.561352 Z M 190.93904 141.558026 " transform="matrix(-0.587174,-0.886995,-0.59133,0.880761,423.048511,334.476097)"/>
<path style="fill-rule:nonzero;fill:rgb(100%,100%,0%);fill-opacity:1;stroke-width:0.5;stroke-linecap:butt;stroke-linejoin:miter;stroke:rgb(0%,0%,0%);stroke-opacity:1;stroke-miterlimit:4;" d="M 186.299885 139.04152 L 187.500858 139.04465 L 187.49999 139.917488 L 188.376161 139.912843 L 188.375991 139.02122 L 189.606783 139.027769 L 189.605868 139.913865 L 190.486428 139.918075 L 190.485172 139.020923 L 191.715964 139.027473 L 191.713293 141.038311 C 191.713303 141.348777 191.465085 141.555616 191.178925 141.555711 L 186.862236 141.554853 C 186.570556 141.553824 186.301799 141.318646 186.30061 141.029168 Z M 186.299885 139.04152 " transform="matrix(-0.587174,-0.886995,-0.59133,0.880761,429.277841,343.886225)"/>
<path style="fill-rule:nonzero;fill:rgb(100%,100%,0%);fill-opacity:1;stroke-width:0.5;stroke-linecap:butt;stroke-linejoin:miter;stroke:rgb(0%,0%,0%);stroke-opacity:1;stroke-miterlimit:4;" d="M 186.297561 139.039148 L 187.498534 139.042278 L 187.497666 139.915115 L 188.37714 139.913797 L 188.37697 139.022173 L 189.604459 139.025397 L 189.606847 139.914819 L 190.484104 139.915702 L 190.486151 139.021877 L 191.71364 139.025101 L 191.714272 141.039265 C 191.714282 141.349731 191.466064 141.556569 191.176601 141.553339 L 186.860997 141.558008 C 186.571535 141.554778 186.302778 141.3196 186.301589 141.030122 L 186.297561 139.039148 L 186.300864 139.042474 Z M 186.297561 139.039148 " transform="matrix(-0.587174,-0.886995,-0.59133,0.880761,423.048511,334.476097)"/>
<path style=" stroke:none;fill-rule:nonzero;fill:rgb(0%,0%,0%);fill-opacity:1;" d="M 232.277344 295.742188 C 232.664062 295.214844 232.136719 294.40625 231.769531 294.972656 L 230.859375 296.328125 L 231.371094 297.09375 L 232.277344 295.742188 "/>
<path style=" stroke:none;fill-rule:nonzero;fill:rgb(0%,0%,0%);fill-opacity:1;" d="M 234.089844 302.433594 C 234.449219 301.902344 233.964844 301.148438 233.605469 301.699219 L 232.902344 302.746094 L 233.386719 303.480469 L 234.089844 302.433594 "/>
<path style=" stroke:none;fill-rule:nonzero;fill:rgb(0%,0%,0%);fill-opacity:1;" d="M 227.839844 292.996094 C 228.199219 292.464844 227.714844 291.707031 227.355469 292.261719 L 226.652344 293.308594 L 227.136719 294.039062 L 227.839844 292.996094 "/>
<path style=" stroke:none;fill-rule:nonzero;fill:rgb(0%,20%,60%);fill-opacity:1;" d="M 193.863281 253.007812 L 193.863281 253.015625 C 193.863281 255.777344 194.570312 258.296875 195.707031 260.125 C 196.84375 261.957031 198.410156 263.097656 200.125 263.097656 C 201.847656 263.097656 203.410156 261.964844 204.542969 260.140625 C 205.675781 258.316406 206.378906 255.800781 206.378906 253.023438 L 206.378906 239.566406 L 193.886719 239.550781 L 193.863281 253.007812 "/>
<path style="fill:none;stroke-width:2.972;stroke-linecap:round;stroke-linejoin:miter;stroke:rgb(100%,100%,100%);stroke-opacity:1;stroke-miterlimit:4;" d="M 236.071875 195.740625 L 236.071875 195.740625 M 244.392187 195.740625 L 244.392187 195.740625 M 240.225 199.734375 L 240.225 199.734375 M 236.071875 203.915625 L 236.071875 203.915625 M 244.382812 203.90625 L 244.382812 203.90625 " transform="matrix(0.833333,0,0,1.25,0,0)"/>
<path style=" stroke:none;fill-rule:nonzero;fill:rgb(0%,20%,60%);fill-opacity:1;" d="M 193.863281 220.488281 L 193.863281 220.492188 C 193.863281 223.257812 194.570312 225.777344 195.707031 227.605469 C 196.84375 229.4375 198.410156 230.578125 200.125 230.578125 C 201.847656 230.578125 203.410156 229.445312 204.542969 227.621094 C 205.675781 225.796875 206.378906 223.28125 206.378906 220.503906 L 206.378906 207.042969 L 193.886719 207.027344 L 193.863281 220.488281 "/>
<path style="fill:none;stroke-width:2.972;stroke-linecap:round;stroke-linejoin:miter;stroke:rgb(100%,100%,100%);stroke-opacity:1;stroke-miterlimit:4;" d="M 236.071875 195.741 L 236.071875 195.741 M 244.392187 195.741 L 244.392187 195.741 M 240.225 199.73475 L 240.225 199.73475 M 236.071875 203.916 L 236.071875 203.916 M 244.382812 203.9035 L 244.382812 203.9035 " transform="matrix(0.833333,0,0,1.25,0,-32.52)"/>
<path style=" stroke:none;fill-rule:nonzero;fill:rgb(0%,20%,60%);fill-opacity:1;" d="M 176.53125 253.007812 L 176.53125 253.015625 C 176.53125 255.777344 177.238281 258.296875 178.375 260.125 C 179.511719 261.957031 181.078125 263.097656 182.792969 263.097656 C 184.515625 263.097656 186.078125 261.964844 187.210938 260.140625 C 188.34375 258.316406 189.046875 255.800781 189.046875 253.023438 L 189.046875 239.566406 L 176.554688 239.550781 L 176.53125 253.007812 "/>
<path style="fill:none;stroke-width:2.972;stroke-linecap:round;stroke-linejoin:miter;stroke:rgb(100%,100%,100%);stroke-opacity:1;stroke-miterlimit:4;" d="M 236.072438 195.740625 L 236.072438 195.740625 M 244.39275 195.740625 L 244.39275 195.740625 M 240.225562 199.734375 L 240.225562 199.734375 M 236.072438 203.915625 L 236.072438 203.915625 M 244.383375 203.90625 L 244.383375 203.90625 " transform="matrix(0.833333,0,0,1.25,-17.3325,0)"/>
<path style=" stroke:none;fill-rule:nonzero;fill:rgb(0%,20%,60%);fill-opacity:1;" d="M 211.152344 253.007812 L 211.152344 253.015625 C 211.152344 255.777344 211.859375 258.296875 212.992188 260.125 C 214.132812 261.957031 215.699219 263.097656 217.414062 263.097656 C 219.136719 263.097656 220.699219 261.964844 221.832031 260.140625 C 222.964844 258.316406 223.667969 255.800781 223.667969 253.023438 L 223.667969 239.566406 L 211.171875 239.550781 L 211.152344 253.007812 "/>
<path style="fill:none;stroke-width:2.972;stroke-linecap:round;stroke-linejoin:miter;stroke:rgb(100%,100%,100%);stroke-opacity:1;stroke-miterlimit:4;" d="M 236.07375 195.740625 L 236.07375 195.740625 M 244.394062 195.740625 L 244.394062 195.740625 M 240.226875 199.734375 L 240.226875 199.734375 M 236.07375 203.915625 L 236.07375 203.915625 M 244.384687 203.90625 L 244.384687 203.90625 " transform="matrix(0.833333,0,0,1.25,17.2875,0)"/>
<path style=" stroke:none;fill-rule:nonzero;fill:rgb(0%,20%,60%);fill-opacity:1;" d="M 193.863281 285.238281 L 193.863281 285.242188 C 193.863281 288.007812 194.570312 290.527344 195.707031 292.355469 C 196.84375 294.1875 198.410156 295.328125 200.125 295.328125 C 201.847656 295.328125 203.410156 294.195312 204.542969 292.371094 C 205.675781 290.546875 206.378906 288.03125 206.378906 285.253906 L 206.378906 271.792969 L 193.886719 271.777344 L 193.863281 285.238281 "/>
<path style="fill:none;stroke-width:2.972;stroke-linecap:round;stroke-linejoin:miter;stroke:rgb(100%,100%,100%);stroke-opacity:1;stroke-miterlimit:4;" d="M 236.071875 195.741 L 236.071875 195.741 M 244.392187 195.741 L 244.392187 195.741 M 240.225 199.73475 L 240.225 199.73475 M 236.071875 203.916 L 236.071875 203.916 M 244.382812 203.9035 L 244.382812 203.9035 " transform="matrix(0.833333,0,0,1.25,0,32.23)"/>
</g>
</svg>
